<ttFont>
<head>
    <!-- Most of this table will be recalculated by the compiler -->
    <tableVersion value="1.0"/>
    <fontRevision value="0.84999"/>
    <checkSumAdjustment value="0xfe112983"/>
    <magicNumber value="0x5f0f3cf5"/>
    <flags value="00000000 00000011"/>
    <unitsPerEm value="1000"/>
    <created value="Wed Sep  1 18:35:57 2021"/>
    <modified value="Wed Sep  1 18:35:57 2021"/>
    <xMin value="-146"/>
    <yMin value="-216"/>
    <xMax value="721"/>
    <yMax value="1024"/>
    <macStyle value="00000000 00000000"/>
    <lowestRecPPEM value="7"/>
    <fontDirectionHint value="2"/>
    <indexToLocFormat value="0"/>
    <glyphDataFormat value="0"/>
  </head>
          <CharString index="0">
            800 rmoveto
            return
          </CharString>
          <CharString index="1">
            vstem
            375 return
          </CharString>
          <CharString index="2">
            848 rmoveto
            return
          </CharString>
          <CharString index="3">
            598 rmoveto
            -91 return
          </CharString>
          <CharString index="4">
            88 192 88 hstem
            90 570 vstem
            90 return
          </CharString>
          <CharString index="5">
            84 50 84 hstem
            80 590 vstem
            513 return
          </CharString>
          <CharString index="6">
            0 90 417 91 return
          </CharString>
          <CharString index="7">
            848 -20 hstem
            return
          </CharString>
          <CharString index="8">
            rmoveto
            11 10 1 2 9 hvcurveto
            -14 -64 -42 -55 -76 -54 rrcurveto
            -65 callsubr
            vhcurveto
            return
          </CharString>
          <CharString index="9">
            rmoveto
            -49 callsubr
            -53 32 -31 57 hvcurveto
            return
          </CharString>
          <CharString index="10">
            rmoveto
            -56 callsubr
            return
          </CharString>
          <CharString index="11">
            14 64 42 55 76 54 rrcurveto
            -137 hlineto
            -43 -61 -20 -71 -93 vvcurveto
            return
          </CharString>
          <CharString index="12">
            -201 -90 498 90 -201 return
          </CharString>
          <CharString index="13">
            -28 callsubr
            178 -106 callsubr
            return
          </CharString>
          <CharString index="14">
            rmoveto
            558 88 -558 hlineto
            return
          </CharString>
          <CharString index="15">
            rmoveto
            139 70 86 117 return
          </CharString>
          <CharString index="16">
            hstem
            125 500 vstem
            567 return
          </CharString>
          <CharString index="17">
            rlineto
            90 -10 40 -38 -73 vvcurveto
            return
          </CharString>
          <CharString index="18">
            rlineto
            -90 10 -40 38 73 vvcurveto
            return
          </CharString>
          <CharString index="19">
            0 96 608 96 hstem
            return
          </CharString>
          <CharString index="20">
            21 -21 800 -20 hstem
            return
          </CharString>
          <CharString index="21">
            187 78 187 vstem
            return
          </CharString>
          <CharString index="22">
            27 31 53 54 -27 30 return
          </CharString>
          <CharString index="23">
            hlineto
            -40 -206 rlineto
            return
          </CharString>
          <CharString index="24">
            187 vstem
            375 return
          </CharString>
          <CharString index="25">
            -74 callsubr
            -433 -202 rmoveto
            -52 callsubr
            -66 callsubr
            endchar
          </CharString>
          <CharString index="26">
            -15 90 447 91 hstem
            86 96 386 96 -106 callsubr
            -15 rmoveto
            174 115 125 190 189 -115 124 -174 -174 -115 -124 -189 -190 115 -125 174 hvcurveto
            -193 315 rmoveto
            138 73 84 120 120 73 -84 -138 -139 -73 -86 -120 -120 -73 86 139 vhcurveto
            endchar
          </CharString>
          <CharString index="27">
            -99 callsubr
            163 -170 rmoveto
            -69 callsubr
            -36 callsubr
          </CharString>
          <CharString index="28">
            -15 94 642 94 hstem
            66 100 418 100 -106 callsubr
            -15 rmoveto
            204 105 141 274 -54 callsubr
            -274 105 -141 204 hvcurveto
            -209 415 rmoveto
            217 67 104 142 return
          </CharString>
          <CharString index="29">
            rmoveto
            286 hlineto
            -90 -192 rlineto
            -196 -88 155 hlineto
            -73 -156 rlineto
            88 hlineto
            73 156 rlineto
            327 88 -286 hlineto
            90 192 rlineto
            196 88 -155 hlineto
            73 156 rlineto
            -88 hlineto
            -73 -156 rlineto
            -327 hlineto
            endchar
          </CharString>
          <CharString index="30">
            -93 callsubr
            205 -259 -97 callsubr
            429 vmoveto
            -56 callsubr
            endchar
          </CharString>
          <CharString index="31">
            -8 -28 callsubr
            -83 callsubr
            -8 -99 callsubr
            endchar
          </CharString>
          <CharString index="32">
            -74 callsubr
            endchar
          </CharString>
          <CharString index="33">
            rmoveto
            -66 callsubr
            -52 callsubr
            return
          </CharString>
          <CharString index="34">
            -98 callsubr
            -89 529 rmoveto
            -53 32 -31 57 -49 callsubr
            vhcurveto
            endchar
          </CharString>
          <CharString index="35">
            rmoveto
            58 58 -192 192 192 192 -58 58 -192 -192 -192 192 -58 -58 192 -192 -192 -192 58 -58 192 192 rlineto
            endchar
          </CharString>
          <CharString index="36">
            -93 hlineto
            -86 -14 -64 -51 -92 hhcurveto
            -119 -71 83 138 141 73 85 121 101 68 -58 -96 12 hvcurveto
            93 hlineto
            return
          </CharString>
          <CharString index="37">
            -92 callsubr
            -48 callsubr
            -117 -70 85 140 vhcurveto
            endchar
          </CharString>
          <CharString index="38">
            -65 callsubr
            11 10 1 2 9 vhcurveto
            return
          </CharString>
          <CharString index="39">
            rmoveto
            -146 vlineto
            498 -245 rlineto
            99 vlineto
            -444 214 rlineto
            10 vlineto
            444 214 rlineto
            99 vlineto
            endchar
          </CharString>
          <CharString index="40">
            rmoveto
            146 vlineto
            -498 245 rlineto
            -99 vlineto
            444 -214 rlineto
            -10 vlineto
            -444 -214 rlineto
            -99 vlineto
            endchar
          </CharString>
          <CharString index="41">
            84 60 63 103 13 hvcurveto
            -82 hlineto
            -51 -7 -29 -31 -39 -90 -49 134 -137 hhcurveto
            -84 -60 -63 -103 -13 hvcurveto
            return
          </CharString>
          <CharString index="42">
            137 hlineto
            43 61 20 71 93 vvcurveto
            77 -31 36 -67 -57 -32 -30 -54 -53 32 -31 57 return
          </CharString>
          <CharString index="43">
            -15 83 199 83 100 83 199 83 -45 callsubr
            return
          </CharString>
          <CharString index="44">
            -89 vlineto
            -152 -20 -96 -119 -175 vvcurveto
            -175 96 -117 152 -17 vhcurveto
            return
          </CharString>
          <CharString index="45">
            rmoveto
            -45 30 -26 53 53 29 26 45 46 -29 25 -53 -53 -30 -25 -46 vhcurveto
            endchar
          </CharString>
          <CharString index="46">
            356 88 hstem
            96 558 vstem
            96 356 -93 callsubr
            endchar
          </CharString>
          <CharString index="47">
            306 88 hstem
            96 558 vstem
            96 306 -93 callsubr
            endchar
          </CharString>
          <CharString index="48">
            87 vlineto
            144 12 92 90 132 vvcurveto
            134 -70 71 -150 18 vhcurveto
            return
          </CharString>
          <CharString index="49">
            -87 vlineto
            -149 -12 -96 -91 -133 vvcurveto
            -134 71 -71 149 -18 vhcurveto
            return
          </CharString>
          <CharString index="50">
            rmoveto
            570 88 -570 hlineto
            -368 vmoveto
            570 88 -570 hlineto
            endchar
          </CharString>
          <CharString index="51">
            -47 30 -29 44 44 30 29 47 48 -30 29 -44 -44 -30 -29 -48 vhcurveto
            return
          </CharString>
          <CharString index="52">
            197 204 rmoveto
            -102 hlineto
            16 -131 90 -77 148 -10 rrcurveto
            return
          </CharString>
          <CharString index="53">
            274 -105 141 -204 -204 -105 -141 -274 return
          </CharString>
          <CharString index="54">
            153 94 88 94 153 hstem
            301 148 vstem
            96 return
          </CharString>
          <CharString index="55">
            82 hlineto
            51 7 29 31 39 90 49 -134 137 hhcurveto
            return
          </CharString>
          <CharString index="56">
            -105 callsubr
            -41 callsubr
            return
          </CharString>
          <CharString index="57">
            -48 callsubr
            hvcurveto
            return
          </CharString>
          <CharString index="58">
            57 32 31 53 54 -32 30 -57 -57 -32 -30 -54 return
          </CharString>
          <CharString index="59">
            117 70 -86 -139 -140 -70 -85 -117 return
          </CharString>
          <CharString index="60">
            -179 -21 185 89 450 89 -15 -20 hstemhm
            return
          </CharString>
          <CharString index="61">
            -84 callsubr
            80 hlineto
            40 206 rlineto
            return
          </CharString>
          <CharString index="62">
            hstemhm
            66 86 142 86 -10 86 142 86 return
          </CharString>
          <CharString index="63">
            101 hlineto
            -14 144 -92 83 -153 11 rrcurveto
            return
          </CharString>
          <CharString index="64">
            -15 89 -53 -21 524 89 235 -20 hstemhm
            return
          </CharString>
          <CharString index="65">
            rlineto
            -113 hlineto
            -210 -354 rlineto
            endchar
          </CharString>
          <CharString index="66">
            18 -382 rlineto
            74 hlineto
            18 382 rlineto
            return
          </CharString>
          <CharString index="67">
            -217 -67 -104 -142 return
          </CharString>
          <CharString index="68">
            -147 83 -83 1054 -83 83 hstemhm
            return
          </CharString>
          <CharString index="69">
            -100 callsubr
            138 474 vstem
            return
          </CharString>
          <CharString index="70">
            hstemhm
            104 100 145 71 136 100 return
          </CharString>
          <CharString index="71">
            -14 -64 -42 -55 -76 -54 rrcurveto
            endchar
          </CharString>
          <CharString index="72">
            -117 -70 85 140 hvcurveto
            endchar
          </CharString>
          <CharString index="73">
            77 70 112 112 77 -70 return
          </CharString>
          <CharString index="74">
            45 26 -36 -63 -64 -26 -36 -45 return
          </CharString>
          <CharString index="75">
            -77 -70 -112 -112 -77 70 return
          </CharString>
          <CharString index="76">
            rmoveto
            -86 598 86 vlineto
            endchar
          </CharString>
          <CharString index="77">
            rmoveto
            -86 662 86 vlineto
            endchar
          </CharString>
          <CharString index="78">
            398 96 -498 hlineto
            endchar
          </CharString>
          <CharString index="79">
            168 hstem
            286 return
          </CharString>
        <CharString name=".notdef">
          418 -200 72 35 49 35 24 35 49 35 63 35 25 59 23 35 25 34 39 -28 28 35 28 36 38 35 28 34 39 35 70 hstemhm
          98 77 -77 78 -78 147 -147 217 -105 35 -35 221 -151 35 -35 151 -81 81 hintmask 111111111011111100010101
          431 850 rmoveto
          -333 -1050 333 hlineto
          -256 72 rmoveto
          35 vlineto
          74 49 rlineto
          -74 35 175 -35 -34 hlineto
          -73 -49 rlineto
          107 -35 hlineto
          -175 143 rmoveto
          119 175 -119 vlineto
          -175 182 rmoveto
          119 35 -84 105 49 vlineto
          hintmask 000001100000000001000010
          -35 -24 -35 59 hlineto
          hintmask 000010110100000100000101
          105 -119 hlineto
          -175 142 rmoveto
          35 140 70 35 -105 vlineto
          -175 60 rmoveto
          hintmask 000000011011110100000101
          34 70 39 -70 35 175 -35 -70 -73 vlineto
          -105 136 rmoveto
          109 105 -73 70 -36 vlineto
          -175 137 rmoveto
          34 vlineto
          hintmask 000000000000111010000001
          70 39 -69 35 174 -35 -70 -39 70 -34 hlineto
          hintmask 000100000000000000001000
          -140 -622 rmoveto
          hintmask 000100000000000000100000
          105 49 hlineto
          hintmask 000100000000000000001000
          -105 hlineto
          hintmask 000000000001000000010000
          472 vmoveto
          hintmask 000000000001000001000000
          35 38 hlineto
          hintmask 000000000001000000010000
          -35 hlineto
          endchar
        </CharString>
        <CharString name="A">
          21 -21 282 94 368 56 hstem
          63 624 vstem
          581 hmoveto
          106 hlineto
          -228 800 rlineto
          -168 hlineto
          -228 -800 rlineto
          100 hlineto
          79 282 rlineto
          260 hlineto
          -233 94 rmoveto
          103 368 104 -368 rlineto
          endchar
        </CharString>
        <CharString name="B">
          0 96 259 93 256 96 hstemhm
          126 100 340 98 -92 98 hintmask 11110100
          396 -107 callsubr
          -270 -800 264 hlineto
          hintmask 11111000
          173 101 81 136 97 -52 61 -94 12 hvcurveto
          28 vlineto
          hintmask 11110100
          98 13 54 60 96 vvcurveto
          135 -102 81 -172 vhcurveto
          -170 -704 rmoveto
          hintmask 11111000
          259 164 vlineto
          114 62 -46 -84 -83 -62 -46 -114 hvcurveto
          -164 352 rmoveto
          256 170 vlineto
          hintmask 11110100
          114 62 -45 -83 -83 -62 -45 -114 hvcurveto
          endchar
        </CharString>
        <CharString name="C">
          -15 95 640 95 hstem
          89 100 vstem
          390 -15 rmoveto
          161 99 98 181 23 hvcurveto
          -98 hlineto
          -124 -19 -59 -60 -107 hhcurveto
          -136 -65 104 216 216 68 104 143 110 62 -65 -134 18 hvcurveto
          97 hlineto
          189 -20 -103 105 -164 hhcurveto
          -202 -109 -142 -273 -273 105 -142 196 hvcurveto
          endchar
        </CharString>
        <CharString name="D">
          -88 callsubr
          106 100 360 100 vstem
          106 hmoveto
          214 hlineto
          227 119 138 262 262 -119 138 -227 hvcurveto
          -214 hlineto
          100 -704 rmoveto
          608 114 vlineto
          162 84 -105 -199 -199 -84 -105 -162 hvcurveto
          endchar
        </CharString>
        <CharString name="E">
          0 96 261 92 255 96 hstem
          148 100 vstem
          148 hmoveto
          478 96 -378 261 338 92 -338 255 -29 callsubr
        </CharString>
        <CharString name="Euro">
          -15 95 204 81 90 81 184 95 hstem
          136 100 vstem
          420 -15 rmoveto
          142 90 92 167 20 hvcurveto
          -97 hlineto
          -110 -16 -51 -54 -88 hhcurveto
          -99 -59 67 137 -19 hvcurveto
          255 81 -261 hlineto
          -1 35 rlineto
          19 0 19 1 17 vhcurveto
          261 81 -252 hlineto
          124 23 57 60 96 hhcurveto
          101 56 -60 -124 16 hvcurveto
          96 hlineto
          180 -17 -96 99 -156 hhcurveto
          -153 -94 -95 -184 -29 hvcurveto
          -106 -81 97 hlineto
          -1 -18 0 -18 -19 vvcurveto
          -12 0 -12 1 -11 vhcurveto
          -97 -81 103 hlineto
          -197 25 94 -102 158 hhcurveto
          endchar
        </CharString>
        <CharString name="F">
          21 -21 343 96 265 96 hstem
          170 100 vstem
          170 hmoveto
          100 343 348 96 -348 265 -29 callsubr
        </CharString>
        <CharString name="G">
          -15 92 -56 -21 298 96 326 95 hstemhm
          80 100 387 88 hintmask 10111100
          365 -15 rmoveto
          88 59 39 78 27 hvcurveto
          28 hlineto
          hintmask 01111100
          -102 88 394 -292 -96 206 vlineto
          hintmask 10111100
          -149 -15 -59 -72 -108 hhcurveto
          -138 -69 107 216 216 69 104 146 107 60 -59 -120 17 hvcurveto
          98 hlineto
          176 -21 -100 98 -161 hhcurveto
          -204 -111 -144 -271 -275 110 -140 175 hvcurveto
          endchar
        </CharString>
        <CharString name="H">
          21 -21 356 94 350 -20 hstem
          106 100 338 100 vstem
          106 -107 callsubr
          -800 100 356 338 -356 100 800 -100 -350 -338 350 vlineto
          endchar
        </CharString>
        <CharString name="I">
          -88 callsubr
          325 100 vstem
          126 hmoveto
          498 96 -199 608 199 96 -498 -96 199 -608 -199 hlineto
          endchar
        </CharString>
        <CharString name="J">
          -15 96 623 96 hstem
          108 98 306 100 vstem
          359 -15 rmoveto
          157 96 98 161 hvcurveto
          556 -450 -96 350 -460 vlineto
          -104 -55 -59 -98 -98 -55 59 104 vhcurveto
          106 -98 -106 vlineto
          -161 96 -98 155 vhcurveto
          endchar
        </CharString>
        <CharString name="K">
          -87 callsubr
          148 100 vstem
          148 800 rmoveto
          -800 100 352 vlineto
          320 -352 rlineto
          132 hlineto
          -359 390 376 410 rlineto
          -127 hlineto
          -342 -378 rlineto
          378 vlineto
          endchar
        </CharString>
        <CharString name="L">
          0 96 704 -20 hstem
          189 99 vstem
          189 hmoveto
          480 96 -381 704 -99 hlineto
          endchar
        </CharString>
        <CharString name="M">
          21 -21 274 52 404 70 hstem
          84 96 390 96 vstem
          84 hmoveto
          96 554 hlineto
          -6 176 rlineto
          9 hlineto
          120 -456 rlineto
          144 hlineto
          120 456 rlineto
          9 hlineto
          -6 -176 rlineto
          -554 96 800 -163 vlineto
          -121 -474 rlineto
          -9 hlineto
          -121 474 rlineto
          -168 hlineto
          endchar
        </CharString>
        <CharString name="N">
          0 62 676 62 hstem
          106 100 338 100 vstem
          106 hmoveto
          100 575 hlineto
          -5 163 rlineto
          9 hlineto
          254 -738 rlineto
          180 800 -100 -575 hlineto
          5 -163 rlineto
          -9 hlineto
          -254 738 rlineto
          -180 hlineto
          endchar
        </CharString>
        <CharString name="O">
          -79 callsubr
          142 67 -104 -217 -40 callsubr
          -142 -67 104 217 vhcurveto
          endchar
        </CharString>
        <CharString name="P">
          21 -21 336 92 276 96 hstem
          146 100 352 100 vstem
          146 hmoveto
          100 336 200 hlineto
          157 95 87 144 145 -95 88 -157 hvcurveto
          -300 hlineto
          100 -372 rmoveto
          276 204 vlineto
          93 55 -52 -86 -86 -55 -52 -93 hvcurveto
          endchar
        </CharString>
        <CharString name="Q">
          -194 -21 201 93 642 94 hstem
          66 100 191 43 184 100 vstem
          375 79 rmoveto
          -142 -67 104 217 217 67 104 142 142 67 -104 -217 -217 -67 -104 -142 hvcurveto
          -309 321 rmoveto
          -266 99 -140 192 -9 vhcurveto
          -76 vlineto
          291 -124 rlineto
          95 vlineto
          -248 106 rlineto
          188 11 96 140 263 vvcurveto
          -54 callsubr
          vhcurveto
          endchar
        </CharString>
        <CharString name="R">
          21 -21 348 89 267 96 hstem
          129 100 353 99 vstem
          129 hmoveto
          100 348 128 hlineto
          223 -348 rlineto
          119 hlineto
          -232 350 rlineto
          133 13 81 82 126 vvcurveto
          142 -97 87 -156 vhcurveto
          -299 hlineto
          100 -363 rmoveto
          267 201 vlineto
          96 56 -49 -84 -85 -56 -49 -96 hvcurveto
          endchar
        </CharString>
        <CharString name="S">
          -15 96 267 102 269 96 hstem
          104 100 352 100 vstem
          197 204 rmoveto
          -102 hlineto
          -141 17 103 -78 169 hhcurveto
          164 108 93 143 134 -70 71 -150 18 hvcurveto
          -102 12 -89 callsubr
          88 69 54 113 115 66 -48 -95 11 vhcurveto
          101 hlineto
          154 -15 -105 85 -173 hhcurveto
          -170 -112 -94 -144 -134 71 -71 149 -18 hvcurveto
          102 -12 -90 callsubr
          -87 -65 -53 -107 -112 -63 41 82 -12 vhcurveto
          endchar
        </CharString>
        <CharString name="T">
          21 -21 704 96 hstem
          325 100 vstem
          325 hmoveto
          100 704 239 96 -578 -96 239 hlineto
          endchar
        </CharString>
        <CharString name="U">
          -15 96 719 -20 hstem
          96 100 358 100 vstem
          96 -107 callsubr
          -526 vlineto
          -180 106 -109 173 173 106 109 180 vhcurveto
          526 -100 -526 vlineto
          -123 -65 -70 -114 -114 -65 70 123 vhcurveto
          526 vlineto
          endchar
        </CharString>
        <CharString name="V">
          0 56 744 -20 hstem
          63 624 vstem
          169 -107 callsubr
          -106 hlineto
          228 -800 rlineto
          168 hlineto
          228 800 rlineto
          -100 hlineto
          -209 -744 rlineto
          endchar
        </CharString>
        <CharString name="W">
          0 110 -110 112 -91 -21 504 94 0 -20 222 -20 hstemhm
          29 692 hintmask 00101110
          137 800 rmoveto
          -108 hlineto
          119 -800 rlineto
          144 hlineto
          hintmask 00110110
          85 504 83 -504 rlineto
          142 hlineto
          119 800 rlineto
          -103 hlineto
          hintmask 10001110
          -91 -690 -79 488 rlineto
          -139 hlineto
          hintmask 01001110
          -81 -486 rlineto
          endchar
        </CharString>
        <CharString name="X">
          -87 callsubr
          61 628 vstem
          179 -107 callsubr
          -118 hlineto
          232 -414 -216 -386 rlineto
          115 hlineto
          183 337 179 -337 rlineto
          119 hlineto
          -215 386 231 414 rlineto
          -113 hlineto
          -200 -365 rlineto
          endchar
        </CharString>
        <CharString name="Y">
          -87 callsubr
          325 100 vstem
          166 -107 callsubr
          -115 hlineto
          274 -450 rlineto
          -350 100 350 vlineto
          274 450 -42 callsubr
        </CharString>
        <CharString name="Z">
          -88 callsubr
          114 57 408 57 vstem
          114 hmoveto
          522 96 -465 hlineto
          465 533 rlineto
          171 -522 -96 465 vlineto
          -465 -533 rlineto
          endchar
        </CharString>
        <CharString name="_part.multiply">
          600 -20 -91 callsubr
          100 rmoveto
          58 58 -442 442 -58 -58 rlineto
          endchar
        </CharString>
        <CharString name="a">
          -15 87 -51 -21 522 91 hstemhm
          113 99 303 96 hintmask 10111000
          77 390 rmoveto
          100 hlineto
          83 12 67 49 103 hhcurveto
          101 55 -49 -91 hvcurveto
          -14 vlineto
          -220 -33 rlineto
          -116 -19 -66 -64 -95 vvcurveto
          -107 74 -65 122 86 65 33 58 27 vhcurveto
          hintmask 01111000
          28 -76 96 399 hlineto
          136 -92 78 -160 vhcurveto
          hintmask 10111000
          -158 -109 -86 -137 -15 hvcurveto
          135 -232 rmoveto
          51 34 31 64 10 vhcurveto
          205 31 rlineto
          -28 vlineto
          -103 -81 -78 -107 -75 -40 31 55 vhcurveto
          endchar
        </CharString>
        <CharString name="ampersand">
          -15 96 638 96 hstemhm
          96 102 -32 102 136 101 hintmask 11101000
          96 199 rmoveto
          -128 88 -86 132 96 76 41 80 54 vhcurveto
          112 -129 rlineto
          141 vlineto
          -67 76 22 57 16 67 9 79 rlinecurve
          -102 hlineto
          -4 -43 -7 -39 -9 -34 -129 147 rcurveline
          65 51 57 59 98 vvcurveto
          111 -64 68 -105 vhcurveto
          hintmask 11011000
          -105 -65 -69 -114 -58 25 -58 57 -71 hvcurveto
          hintmask 11101000
          -76 -56 -76 -66 -124 vvcurveto
          102 3 rmoveto
          77 51 48 61 46 vhcurveto
          165 -190 rlineto
          -68 -37 -53 -34 -69 hhcurveto
          -71 -47 48 73 hvcurveto
          hintmask 11011000
          70 430 rmoveto
          54 26 33 42 42 26 -32 -51 -59 -36 -40 -46 -38 vhcurveto
          -39 45 -15 39 49 vvcurveto
          endchar
        </CharString>
        <CharString name="approxequal">
          114 84 50 84 36 -102 callsubr
          368 -82 callsubr
        </CharString>
        <CharString name="approxequal.case">
          164 84 50 84 36 -102 callsubr
          418 -82 callsubr
        </CharString>
        <CharString name="asciicircum">
          766 49 hstem
          136 478 vstem
          136 503 rmoveto
          95 hlineto
          144 263 144 -263 rlineto
          95 hlineto
          -175 312 rlineto
          -128 hlineto
          endchar
        </CharString>
        <CharString name="asciitilde">
          241 -102 callsubr
          241 -75 callsubr
        </CharString>
        <CharString name="asciitilde.case">
          291 -102 callsubr
          291 -75 callsubr
        </CharString>
        <CharString name="asterisk">
          815 -20 hstem
          330 90 vstem
          322 815 rmoveto
          16 -196 -182 75 -33 -101 192 -45 -129 -150 86 -63 103 170 103 -170 86 63 -129 150 192 45 -33 101 -182 -75 16 196 rlineto
          endchar
        </CharString>
        <CharString name="at">
          -132 73 155 77 -62 62 334 77 156 75 hstemhm
          66 79 137 79 225 77 -73 73 -69 69 hintmask 1101111010000000
          401 -132 rmoveto
          69 56 13 27 40 hvcurveto
          72 vlineto
          -26 -39 -56 -13 -70 hhcurveto
          -169 -87 136 263 264 87 136 167 hvcurveto
          hintmask 1101111100000000
          123 64 -77 -151 hvcurveto
          -4 -28 vlineto
          50 -14 -36 26 -56 hhcurveto
          -112 -58 -83 -161 -161 58 -83 112 hvcurveto
          hintmask 1101111001000000
          61 39 26 50 14 hvcurveto
          hintmask 1011111001000000
          28 -61 hlineto
          hintmask 1011111010000000
          69 401 hlineto
          200 -90 103 -174 -219 -114 -161 -314 vhcurveto
          hintmask 1101111010000000
          -312 114 -160 221 vhcurveto
          -40 472 rmoveto
          111 39 56 76 75 39 -56 -111 -111 -39 -56 -75 -76 -39 56 111 vhcurveto
          endchar
        </CharString>
        <CharString name="b">
          -43 callsubr
          118 91 -91 96 369 98 hintmask 10110110
          420 -15 rmoveto
          158 103 124 190 190 -103 124 -158 -92 -65 -39 -70 -21 hvcurveto
          -28 344 -96 hlineto
          hintmask 01110110
          -848 96 93 28 vlineto
          hintmask 10110110
          -69 21 65 -39 92 hhcurveto
          hintmask 10111010
          -211 314 -70 callsubr
        </CharString>
        <CharString name="backslash">
          -38 callsubr
          138 -105 callsubr
          378 -1018 rlineto
          96 hlineto
          -378 1018 rlineto
          endchar
        </CharString>
        <CharString name="bar">
          860 -20 hstem
          334 82 vstem
          416 860 rmoveto
          -82 -920 82 hlineto
          endchar
        </CharString>
        <CharString name="braceleft">
          -39 callsubr
          269 62 15 88 -68 88 hintmask 00101000
          571 824 rmoveto
          83 vlineto
          -137 -9 -88 -78 -110 vvcurveto
          hintmask 01010100
          -52 20 -51 -55 vvcurveto
          -84 -30 -38 -67 1 vhcurveto
          -102 vlineto
          67 1 30 -38 -84 -55 -20 -51 -52 vvcurveto
          hintmask 10001000
          -110 88 -78 137 -9 vhcurveto
          83 vlineto
          -86 8 -51 39 59 62 20 62 62 vvcurveto
          hintmask 01010100
          88 -41 47 -82 10 vhcurveto
          14 vlineto
          82 10 41 47 88 62 -20 62 62 vvcurveto
          hintmask 00101000
          59 51 39 86 8 vhcurveto
          endchar
        </CharString>
        <CharString name="braceright">
          -39 callsubr
          296 88 -68 88 15 62 hintmask 00101000
          179 907 rmoveto
          -83 vlineto
          86 -8 51 -39 -59 -62 -20 -62 -62 vvcurveto
          hintmask 01010100
          -88 41 -47 82 -10 vhcurveto
          -14 vlineto
          -82 -10 -41 -47 -88 -62 20 -62 -62 vvcurveto
          hintmask 10001000
          -59 -51 -39 -86 -8 vhcurveto
          -83 vlineto
          137 9 88 78 110 vvcurveto
          hintmask 01010100
          52 -20 51 55 vvcurveto
          84 30 38 67 -1 vhcurveto
          102 vlineto
          -67 -1 -30 38 84 55 20 51 52 vvcurveto
          hintmask 00101000
          110 -88 78 -137 9 vhcurveto
          endchar
        </CharString>
        <CharString name="bracketleft">
          -138 82 872 82 hstemhm
          334 85 -85 237 hintmask 11010000
          571 898 rmoveto
          hintmask 11100000
          -237 -1036 hlineto
          hintmask 11010000
          237 82 hlineto
          hintmask 11100000
          -152 872 hlineto
          hintmask 11010000
          152 hlineto
          endchar
        </CharString>
        <CharString name="bracketright">
          -138 82 872 82 hstemhm
          179 237 -85 85 hintmask 11100000
          179 898 rmoveto
          -82 vlineto
          hintmask 11010000
          152 -872 hlineto
          hintmask 11100000
          -152 -82 hlineto
          hintmask 11010000
          237 1036 hlineto
          endchar
        </CharString>
        <CharString name="bullet">
          160 380 hstem
          185 380 -106 callsubr
          160 rmoveto
          122 68 68 122 122 -68 68 -122 -122 -68 -68 -122 -122 68 -68 122 hvcurveto
          endchar
        </CharString>
        <CharString name="c">
          -15 90 447 91 hstem
          102 96 vstem
          388 -15 rmoveto
          145 104 89 138 14 hvcurveto
          -71 callsubr
          148 -12 -107 97 -151 hhcurveto
          -178 -116 -125 -192 -189 112 -122 174 hvcurveto
          endchar
        </CharString>
        <CharString name="cent">
          8 -21 623 -20 22 -20 hstemhm
          102 96 152 72 hintmask 10111000
          350 -101 rmoveto
          72 88 hlineto
          127 13 89 85 13 127 rrcurveto
          -93 hlineto
          -12 -75 -50 -48 -74 -12 rrcurveto
          443 vlineto
          84 -10 56 -56 11 -86 rrcurveto
          93 hlineto
          -11 139 -96 94 -137 11 rrcurveto
          hintmask 11011000
          87 -72 -63 callsubr
          -152 309 rmoveto
          124 56 80 96 18 vhcurveto
          -440 vlineto
          -96 16 -56 79 123 vvcurveto
          endchar
        </CharString>
        <CharString name="cent.bold">
          -101 176 -88 88 447 90 -90 177 hstemhm
          102 96 152 72 hintmask 01011100
          350 699 rmoveto
          hintmask 01101100
          -63 callsubr
          hintmask 10101100
          -88 72 vlineto
          hintmask 01101100
          88 vlineto
          127 13 89 85 13 127 rrcurveto
          -71 callsubr
          -11 139 -96 94 -137 11 rrcurveto
          hintmask 01011100
          87 vlineto
          endchar
        </CharString>
        <CharString name="colon">
          -8 168 277 -94 callsubr
          -8 -73 callsubr
        </CharString>
        <CharString name="colon.case">
          93 168 277 -94 callsubr
          93 -73 callsubr
        </CharString>
        <CharString name="comma">
          -76 callsubr
        </CharString>
        <CharString name="copyright">
          91 59 93 58 201 58 90 59 hstem
          66 59 102 59 339 59 -106 callsubr
          91 rmoveto
          174 135 135 174 174 -135 135 -174 -174 -135 -135 -174 -174 135 -135 174 hvcurveto
          -250 309 rmoveto
          145 105 105 145 145 105 -105 -145 -145 -105 -105 -145 -145 -105 105 145 vhcurveto
          102 hmoveto
          -91 63 -66 87 73 57 49 69 6 vhcurveto
          -61 hlineto
          -36 -4 -30 -24 -41 hhcurveto
          -54 -37 40 59 63 35 39 57 46 33 -28 -44 7 hvcurveto
          60 hlineto
          78 -10 -58 52 -78 hhcurveto
          -91 -60 -64 -96 hvcurveto
          endchar
        </CharString>
        <CharString name="currency">
          140 79 262 79 41 -20 hstem
          165 79 262 79 -106 callsubr
          140 rmoveto
          45 43 14 25 34 hvcurveto
          80 -80 49 49 -80 80 rlineto
          25 34 14 43 45 vvcurveto
          45 -14 43 -25 34 vhcurveto
          80 80 -49 49 -80 -80 rlineto
          25 -34 -43 14 -45 hhcurveto
          -45 -43 -14 -25 -34 hvcurveto
          -80 80 -49 -49 80 -80 rlineto
          -25 -34 -14 -43 -45 vvcurveto
          -45 14 -43 25 -34 vhcurveto
          -80 -80 49 -49 80 80 rlineto
          -25 34 43 -14 45 hhcurveto
          -131 210 rmoveto
          72 59 59 72 72 59 -59 -72 -72 -59 -59 -72 -72 -59 59 72 vhcurveto
          endchar
        </CharString>
        <CharString name="d">
          -43 callsubr
          69 98 369 96 -91 91 hintmask 10111100
          330 -15 rmoveto
          92 65 39 69 21 hvcurveto
          hintmask 01111100
          28 -93 96 848 -96 -344 -28 hlineto
          70 -21 -65 39 -92 hhcurveto
          -158 -103 -124 -190 hvcurveto
          hintmask 10111100
          -190 103 -124 158 vhcurveto
          -163 314 -92 callsubr
          vhcurveto
          hintmask 10111010
          -50 callsubr
          hintmask 10111100
          -35 callsubr
        </CharString>
        <CharString name="divide">
          59 -53 callsubr
          306 -77 callsubr
        </CharString>
        <CharString name="divide.case">
          109 -53 callsubr
          356 -77 callsubr
        </CharString>
        <CharString name="dollar">
          -14 96 -74 -21 365.5 102.5 262 97 -97 183 -87 -20 21 -20 -37 callsubr
          hintmask 1000001111000000
          -55 callsubr
          hintmask 0101000111000000
          -86 71 -59 callsubr
          -16 2 rlineto
          271 vlineto
          94 -8 54 -48 10 -85 rrcurveto
          -44 callsubr
          hintmask 0100100111000000
          86 -71 vlineto
          hintmask 1010010111000000
          -58 callsubr
          25 -3 rlineto
          -269 vlineto
          hintmask 1000001111000000
          -90 8 -51 41 -11 73 rrcurveto
          hintmask 0111000111000000
          7 373 rmoveto
          78 54 51 91 11 vhcurveto
          -263 vlineto
          -15 2 -89 callsubr
          216 -494 rmoveto
          260 vlineto
          6 -1 -90 callsubr
          -77 -51 -50 -85 -11 vhcurveto
          endchar
        </CharString>
        <CharString name="dollar.bold">
          -100 181 -95 95 -94 94 267 102 269 94 -94 95 -95 181 -37 callsubr
          hintmask 0101010111000000
          -55 callsubr
          hintmask 1001010111000000
          -86 71 vlineto
          hintmask 0011010111000000
          -59 callsubr
          -102 12 -89 callsubr
          88 69 54 113 115 66 -48 -95 11 vhcurveto
          -44 callsubr
          hintmask 0101001111000000
          86 -71 vlineto
          hintmask 0101100111000000
          -58 callsubr
          102 -12 -90 callsubr
          -87 -65 -53 -107 vhcurveto
          hintmask 0101010111000000
          -112 -63 41 82 -12 hvcurveto
          endchar
        </CharString>
        <CharString name="dotlessi">
          -101 callsubr
          hstem
          361 96 vstem
          160 -104 callsubr
          201 -417 -95 callsubr
          508 vlineto
          endchar
        </CharString>
        <CharString name="e">
          -15 89 194 87 169 89 hstem
          106 95 352 92 vstem
          106 304 rmoveto
          -199 107 -120 179 132 102 75 124 36 vhcurveto
          -97 hlineto
          -71 -29 -62 -39 -82 hhcurveto
          -113 -67 70 124 -11 hvcurveto
          442 hlineto
          1 13 1 14 14 vvcurveto
          190 -98 114 -160 -170 -111 -122 -187 vhcurveto
          98 51 rmoveto
          106 15 67 63 101 hhcurveto
          95 59 -60 -109 12 hvcurveto
          endchar
        </CharString>
        <CharString name="eight">
          -15 96 270 94 274 96 hstemhm
          89 101 -99 101 366 101 -99 101 hintmask 11110010
          375 445 rmoveto
          -114 -71 52 85 85 71 52 114 114 71 -52 -85 -85 -71 -52 -114 hvcurveto
          -286 146 rmoveto
          -101 58 -68 96 -10 vhcurveto
          -28 vlineto
          hintmask 11101100
          -95 -10 -57 -67 -100 vvcurveto
          -138 108 -84 176 176 108 84 138 100 -57 67 -95 10 vhcurveto
          28 vlineto
          hintmask 11110010
          96 10 58 68 101 vvcurveto
          139 -108 85 -178 -178 -108 -85 -139 vhcurveto
          hintmask 11101100
          103 -375 rmoveto
          83 70 52 113 113 70 -52 -83 -83 -70 -52 -113 -113 -70 52 83 vhcurveto
          endchar
        </CharString>
        <CharString name="ellipsis">
          -8 168 hstem
          54 151 95 150 95 151 -106 callsubr
          -8 rmoveto
          48 -85 callsubr
          -48 -48 -27 -30 -54 -53 27 -31 48 hvcurveto
          -321 84 rmoveto
          -53 27 -31 49 48 -85 callsubr
          -48 -49 -27 -30 -54 vhcurveto
          491 hmoveto
          -53 27 -31 48 49 -85 callsubr
          -49 -48 -27 -30 -54 vhcurveto
          endchar
        </CharString>
        <CharString name="emdash">
          307 86 hstem
          44 662 vstem
          44 393 -30 callsubr
        </CharString>
        <CharString name="emdash.case">
          357 86 hstem
          44 662 vstem
          44 443 -30 callsubr
        </CharString>
        <CharString name="endash">
          307 86 hstem
          76 598 vstem
          76 393 -31 callsubr
        </CharString>
        <CharString name="endash.case">
          357 86 hstem
          76 598 vstem
          76 443 -31 callsubr
        </CharString>
        <CharString name="equal">
          166 -103 callsubr
          446 -57 callsubr
        </CharString>
        <CharString name="equal.case">
          216 -103 callsubr
          496 -57 callsubr
        </CharString>
        <CharString name="exclam">
          -7 142 665 -20 hstemhm
          292 165 -132 100 hintmask 11010000
          325 -107 callsubr
          -582 100 582 vlineto
          hintmask 11100000
          -133 -736 -62 callsubr
        </CharString>
        <CharString name="f">
          21 -21 507 91 175 90 hstem
          293 96 vstem
          389 hmoveto
          507 255 91 -255 62 vlineto
          74 38 39 71 67 38 -29 -54 7 vhcurveto
          97 hlineto
          111 -11 -75 62 -123 hhcurveto
          -131 -74 -73 -130 hvcurveto
          -62 -147 -91 147 -507 vlineto
          endchar
        </CharString>
        <CharString name="five">
          -15 96 263 106 -13 93 174 96 hstemhm
          137 100 328 102 hintmask 10111100
          137 800 rmoveto
          hintmask 11011100
          -456 90 vlineto
          hintmask 10111100
          57 25 63 36 76 hhcurveto
          108 66 -67 -109 -111 -67 -69 -110 -96 -67 59 98 -14 hvcurveto
          -108 hlineto
          -157 17 109 -96 159 hhcurveto
          173 106 105 171 167 -93 102 -152 -82 -60 -30 -50 -15 hvcurveto
          hintmask 11011100
          -28 254 414 96 hlineto
          endchar
        </CharString>
        <CharString name="four">
          21 -21 238 96 428 38 hstem
          78 77 296 100 vstem
          551 -107 callsubr
          -188 hlineto
          -285 -415 rlineto
          -147 373 -238 100 238 125 96 -125 vlineto
          -396 hmoveto
          296 428 rlineto
          -428 vlineto
          endchar
        </CharString>
        <CharString name="g">
          -215 90 156 89 404 89 -15 -20 hstemhm
          88 98 340 96 -89 89 hintmask 11101100
          622 18 rmoveto
          hintmask 11011100
          580 -96 vlineto
          hintmask 11101100
          -84 -28 vlineto
          61 -19 -60 38 -80 hhcurveto
          -152 -99 -116 -175 -175 99 -116 152 80 60 38 61 19 hvcurveto
          28 -112 hlineto
          -89 -65 -54 -106 -91 -62 39 62 -10 vhcurveto
          -104 hlineto
          -116 14 105 -75 148 hhcurveto
          161 106 92 141 hvcurveto
          -436 304 rmoveto
          125 66 77 107 vhcurveto
          hintmask 11101010
          108 66 -77 -125 -125 -66 -77 -108 hvcurveto
          hintmask 11101100
          -107 -66 77 125 hvcurveto
          endchar
        </CharString>
        <CharString name="grave">
          -100 callsubr
          223 304 vstem
          223 -105 callsubr
          212 -264 rlineto
          92 hlineto
          -176 264 rlineto
          endchar
        </CharString>
        <CharString name="greater">
          32 636 hstem
          570 54 vstem
          624 277 -67 callsubr
        </CharString>
        <CharString name="greater.case">
          82 636 hstem
          570 54 vstem
          624 327 -67 callsubr
        </CharString>
        <CharString name="guillemotleft">
          54 592 hstemhm
          112 55 208 55 -55 237 hintmask 11100000
          389 54 rmoveto
          123 vlineto
          -222 173 222 176 rlineto
          120 vlineto
          -277 -227 rlineto
          -140 vlineto
          263 2 rmoveto
          hintmask 11010000
          237 -165 rlineto
          113 vlineto
          hintmask 11100000
          -182 122 rlineto
          hintmask 11010000
          182 123 rlineto
          110 vlineto
          hintmask 11100000
          -237 -167 rlineto
          endchar
        </CharString>
        <CharString name="guillemotright">
          54 592 hstemhm
          138 237 -54 54 208 55 hintmask 10110000
          361 54 rmoveto
          277 225 rlineto
          140 vlineto
          -277 227 rlineto
          -120 vlineto
          222 -176 -222 -173 rlineto
          hintmask 11010000
          -223 -61 rmoveto
          hintmask 10110000
          237 165 rlineto
          136 vlineto
          hintmask 11010000
          -237 167 rlineto
          -110 vlineto
          hintmask 10110000
          183 -123 rlineto
          hintmask 11010000
          -183 -122 rlineto
          endchar
        </CharString>
        <CharString name="h">
          21 -21 522 91 235 -20 hstem
          126 96 319 96 vstem
          126 -105 callsubr
          -848 96 348 vlineto
          110 58 64 101 102 58 -64 -110 vhcurveto
          -348 96 373 vlineto
          145 -88 95 -134 -84 -59 -37 -65 -22 vhcurveto
          -28 337 hlineto
          endchar
        </CharString>
        <CharString name="hyphen">
          -60 callsubr
        </CharString>
        <CharString name="hyphen.case">
          -61 callsubr
        </CharString>
        <CharString name="i">
          -101 callsubr
          92 153 hstemhm
          335 148 -122 96 hintmask 11001000
          160 -104 callsubr
          201 -417 -95 callsubr
          508 vlineto
          hintmask 11110000
          -122 168 -97 callsubr
          endchar
        </CharString>
        <CharString name="j">
          -215 87 635 91 92 153 hstemhm
          406 148 -122 96 hintmask 11001000
          148 -104 callsubr
          284 -523 vlineto
          -73 -38 -39 -71 -67 -39 29 53 -9 vhcurveto
          -94 hlineto
          -108 11 75 -61 123 hhcurveto
          132 73 72 127 hvcurveto
          614 vlineto
          hintmask 11110000
          -122 168 -97 callsubr
          endchar
        </CharString>
        <CharString name="k">
          21 -21 598 -20 270 -20 hstem
          169 96 vstem
          169 -105 callsubr
          -848 96 263 vlineto
          284 -263 rlineto
          132 hlineto
          -321 296 331 302 rlineto
          -124 hlineto
          -302 -278 rlineto
          528 vlineto
          endchar
        </CharString>
        <CharString name="l">
          0 90 668 90 hstem
          347 96 vstem
          146 -105 callsubr
          -90 201 -668 -95 callsubr
          758 vlineto
          endchar
        </CharString>
        <CharString name="less">
          32 636 hstem
          126 54 vstem
          126 423 -68 callsubr
        </CharString>
        <CharString name="less.case">
          82 636 hstem
          126 54 vstem
          126 473 -68 callsubr
        </CharString>
        <CharString name="m">
          21 -21 519 19 -19 23 -23 79 -79 94 hstemhm
          84 96 149 96 149 96 hintmask 10010111
          84 598 rmoveto
          -598 96 416 vlineto
          hintmask 10001111
          69 25 34 49 50 25 -34 -69 vhcurveto
          -416 96 416 vlineto
          69 24 34 50 50 25 -34 -69 vhcurveto
          -416 96 441 vlineto
          110 -44 62 -79 vhcurveto
          hintmask 11000111
          -56 -38 -26 -49 -15 hvcurveto
          -29 hlineto
          hintmask 10001111
          48 -20 -36 27 -47 hhcurveto
          hintmask 10100111
          -50 -33 -25 -46 -12 hvcurveto
          -31 hlineto
          hintmask 10010111
          56 vlineto
          endchar
        </CharString>
        <CharString name="minus">
          -60 callsubr
        </CharString>
        <CharString name="minus.case">
          -61 callsubr
        </CharString>
        <CharString name="multiply">
          600 -20 -91 callsubr
          100 -72 callsubr
        </CharString>
        <CharString name="multiply.case">
          150 500 -91 callsubr
          150 -72 callsubr
        </CharString>
        <CharString name="n">
          21 -21 522 91 -15 -20 hstemhm
          126 96 319 96 hintmask 10111000
          126 598 rmoveto
          -598 96 348 vlineto
          hintmask 11011000
          110 58 64 101 102 58 -64 -110 vhcurveto
          -348 96 373 vlineto
          145 -88 95 -134 -84 -59 -37 -65 -22 vhcurveto
          hintmask 10111000
          -28 87 hlineto
          endchar
        </CharString>
        <CharString name="nine">
          21 -21 292 80 347 96 hstem
          84 102 378 102 -106 callsubr
          815 rmoveto
          -173 -118 -109 -160 -147 102 -107 142 49 46 14 21 21 hvcurveto
          21 -17 -235 -310 rlineto
          123 hlineto
          220 294 rlineto
          64 85 29 77 90 vvcurveto
          160 -117 109 -174 vhcurveto
          -189 -269 rmoveto
          103 -34 callsubr
          -103 -104 -32 callsubr
          104 vhcurveto
          endchar
        </CharString>
        <CharString name="notequal">
          166 -103 callsubr
          446 -78 callsubr
        </CharString>
        <CharString name="notequal.case">
          216 -103 callsubr
          496 -78 callsubr
        </CharString>
        <CharString name="numbersign">
          21 -21 206 84 220 84 206 -20 hstem
          50 650 vstem
          380 -107 callsubr
          -80 -84 callsubr
          -156 -84 139 hlineto
          -43 -220 rlineto
          -150 -84 133 -46 callsubr
          147 -46 callsubr
          156 84 -139 hlineto
          43 220 rlineto
          150 84 -133 hlineto
          40 206 rlineto
          -80 -84 callsubr
          -147 hlineto
          -60 -304 rmoveto
          43 220 rlineto
          147 hlineto
          -43 -220 rlineto
          endchar
        </CharString>
        <CharString name="o">
          -81 callsubr
        </CharString>
        <CharString name="one">
          0 90 635 75 hstem
          367 100 vstem
          467 -107 callsubr
          -153 hlineto
          -198 -126 rlineto
          -118 vlineto
          251 169 rlineto
          -635 -251 -90 578 90 -227 vlineto
          endchar
        </CharString>
        <CharString name="p">
          -47 callsubr
          118 91 -91 96 369 98 hintmask 11100110
          420 613 rmoveto
          -92 -65 -39 -70 -21 hvcurveto
          hintmask 11010110
          -28 94 -96 -798 96 293 28 hlineto
          -69 21 65 -39 92 hhcurveto
          158 103 124 190 hvcurveto
          hintmask 11100110
          190 -103 124 -158 vhcurveto
          hintmask 11101010
          -211 -314 -70 callsubr
        </CharString>
        <CharString name="parenleft">
          -146 1052 hstem
          269 96 vstem
          585 820 rmoveto
          86 vlineto
          -198 -82 -119 -199 1 -245 1 -245 119 -199 196 -82 rrcurveto
          86 vlineto
          -140 74 -79 158 -1 208 -1 208 79 158 142 74 rrcurveto
          endchar
        </CharString>
        <CharString name="parenright">
          -146 1052 hstem
          385 96 vstem
          165 906 rmoveto
          -86 vlineto
          142 -74 79 -158 -1 -208 -1 -208 -79 -158 -140 -74 rrcurveto
          -86 vlineto
          196 82 119 199 1 245 1 245 -119 199 -198 82 rrcurveto
          endchar
        </CharString>
        <CharString name="percent">
          -64 callsubr
          hintmask 11111101
          54 134 rmoveto
          642 447 rlineto
          85 vlineto
          -642 -447 rlineto
          12 414 rmoveto
          -117 57 -66 100 100 57 66 117 116 -57 66 -100 -100 -57 -66 -116 vhcurveto
          86 hmoveto
          63 26 36 45 -33 callsubr
          -45 -26 36 64 vhcurveto
          hintmask 11111011
          218 -466 rmoveto
          -116 57 -66 100 100 57 66 116 117 -57 66 -100 -100 -57 -66 -117 vhcurveto
          86 hmoveto
          64 26 36 45 45 26 -36 -64 -63 -26 -36 -45 -45 -26 36 63 vhcurveto
          endchar
        </CharString>
        <CharString name="percent.cv01">
          -15 83 -47 -21 317 83 0 83 249 83 -15 -20 -45 callsubr
          hintmask 1010101011000000
          527 -15 rmoveto
          103 54 71 136 137 -54 71 -103 -103 -54 -71 -137 -136 54 -71 103 hvcurveto
          -461 623 rmoveto
          hintmask 0001101100000000
          -137 54 -71 103 103 54 71 137 136 -54 71 -103 vhcurveto
          hintmask 1010101011000000
          -103 -54 -71 -136 hvcurveto
          hintmask 0101101100000000
          30 -608 rmoveto
          81 hlineto
          159 340 rlineto
          -76 hlineto
          -108 268 rmoveto
          82 24 42 47 47 24 -42 -82 -83 -24 -42 -47 -47 -24 42 83 vhcurveto
          262 -148 rmoveto
          76 hlineto
          hintmask 1010010011000000
          164 340 rlineto
          -81 hlineto
          -117 -608 rmoveto
          83 24 42 47 47 24 -42 -83 -82 -24 -42 -47 -47 -24 42 82 vhcurveto
          endchar
        </CharString>
        <CharString name="percent.cv02">
          -64 callsubr
          hintmask 11111011
          527 -15 rmoveto
          100 57 66 116 117 -57 66 -100 -100 -57 -66 -117 -116 57 -66 100 hvcurveto
          -461 648 rmoveto
          -117 57 -66 100 vhcurveto
          hintmask 11111101
          100 57 66 117 116 -57 66 -100 hvcurveto
          hintmask 11111011
          -100 -57 -66 -116 hvcurveto
          40 -653 rmoveto
          538 731 rlineto
          109 vlineto
          -538 -731 rlineto
          46 544 rmoveto
          63 26 36 45 vhcurveto
          hintmask 11111101
          -33 callsubr
          hvcurveto
          hintmask 11111011
          -45 -26 36 64 hvcurveto
          304 -466 rmoveto
          64 26 36 45 45 26 -36 -64 -63 -26 -36 -45 -45 -26 36 63 vhcurveto
          endchar
        </CharString>
        <CharString name="period">
          -8 -94 callsubr
          -8 -98 callsubr
          endchar
        </CharString>
        <CharString name="plus">
          306 88 hstem
          331 88 vstem
          96 306 rmoveto
          235 -235 88 235 235 88 -235 235 -88 -235 -235 hlineto
          endchar
        </CharString>
        <CharString name="plus.case">
          356 88 hstem
          331 88 vstem
          96 356 rmoveto
          235 -235 88 235 235 88 -235 235 -88 -235 -235 hlineto
          endchar
        </CharString>
        <CharString name="q">
          -47 callsubr
          69 98 369 96 -91 91 hintmask 11101100
          330 613 rmoveto
          -158 -103 -124 -190 -190 103 -124 158 92 65 39 69 21 hvcurveto
          28 -293 96 hlineto
          hintmask 11011100
          798 -96 -94 -28 vlineto
          hintmask 11101100
          70 -21 -65 39 -92 hhcurveto
          -163 -314 -92 callsubr
          vhcurveto
          hintmask 11101010
          -50 callsubr
          hintmask 11101100
          -35 callsubr
        </CharString>
        <CharString name="question">
          -7 142 584 96 hstem
          268 165 112 102 vstem
          299 218 rmoveto
          99 hlineto
          -1 167 250 -9 222 vvcurveto
          134 -103 83 -168 -172 -108 -86 -153 -19 vhcurveto
          109 hlineto
          91 10 69 52 111 hhcurveto
          105 64 -46 -75 -170 -248 26 2 -236 hvcurveto
          -31 -154 -62 callsubr
        </CharString>
        <CharString name="quotedbl">
          -100 callsubr
          214 92 138 92 vstem
          205 -51 callsubr
          120 hmoveto
          -41 callsubr
          endchar
        </CharString>
        <CharString name="quotedblbase">
          -8 168 hstem
          141 -86 callsubr
          230 -8 -80 callsubr
        </CharString>
        <CharString name="quotedblleft">
          498 168 hstem
          157 -86 callsubr
          520 666 rmoveto
          -11 -10 -1 -2 -9 hvcurveto
          -96 callsubr
          -77 31 -36 67 57 32 30 54 53 -32 31 -57 vhcurveto
          -363 -55 rmoveto
          -77 31 -36 67 57 32 30 54 53 -32 31 -57 -11 -10 -1 -2 -9 vhcurveto
          -96 callsubr
          endchar
        </CharString>
        <CharString name="quotedblright">
          730 168 hstem
          141 -86 callsubr
          230 730 -80 callsubr
        </CharString>
        <CharString name="quoteleft">
          498 168 hstem
          277 -83 callsubr
          666 rmoveto
          -11 -10 -1 -2 -9 hvcurveto
          -96 callsubr
          -77 31 -36 67 57 32 30 54 53 -32 31 -57 vhcurveto
          endchar
        </CharString>
        <CharString name="quoteright">
          730 168 hstem
          286 -83 callsubr
          730 -99 callsubr
          endchar
        </CharString>
        <CharString name="quotesinglbase">
          -76 callsubr
        </CharString>
        <CharString name="quotesingle">
          -100 callsubr
          329 92 vstem
          320 -51 callsubr
          endchar
        </CharString>
        <CharString name="r">
          -101 callsubr
          -76 91 hstemhm
          253 96 226 101 hintmask 11011000
          102 598 rmoveto
          -91 151 -417 -129 -90 440 90 -215 231 vlineto
          hintmask 10111000
          133 42 68 83 67 34 -40 -76 vhcurveto
          -66 101 81 vlineto
          120 -61 72 -102 -69 -46 -29 -57 -21 vhcurveto
          hintmask 11011000
          -28 71 hlineto
          endchar
        </CharString>
        <CharString name="s">
          -15 90 447 91 hstemhm
          125 96 310 96 -78 96 hintmask 11110000
          218 182 rmoveto
          -97 hlineto
          -125 12 96 -72 152 hhcurveto
          155 91 69 116 97 -63 53 -136 19 hvcurveto
          -86 12 rlineto
          -85 12 -36 23 42 vvcurveto
          60 58 34 100 vhcurveto
          hintmask 11101000
          102 62 -43 -77 6 hvcurveto
          96 hlineto
          132 -8 -97 79 -160 hhcurveto
          -161 -94 -69 -117 -96 63 -53 136 -20 hvcurveto
          86 -12 rlineto
          hintmask 11110000
          85 -11 36 -24 -42 vvcurveto
          -60 -54 -34 -95 -95 -59 39 68 -10 vhcurveto
          endchar
        </CharString>
        <CharString name="section">
          -216 96 840 96 hstemhm
          134 101 -62 102 200 102 -62 101 hintmask 11100100
          503 604 rmoveto
          103 hlineto
          132 -13 -85 80 -128 hhcurveto
          hintmask 11010100
          -124 -83 -71 -107 -72 39 -48 72 -19 hvcurveto
          -28 vlineto
          hintmask 11101000
          -95 -24 -55 -63 -91 vvcurveto
          -109 82 -78 134 -20 vhcurveto
          82 -11 43 -40 -63 vvcurveto
          -55 -41 -37 -64 -69 -47 43 73 -7 vhcurveto
          -103 hlineto
          -132 13 85 -80 128 hhcurveto
          124 83 71 107 72 -39 48 -72 19 hvcurveto
          28 vlineto
          hintmask 11010100
          95 24 55 63 91 vvcurveto
          109 -82 78 -134 20 vhcurveto
          -82 11 -43 40 63 vvcurveto
          55 41 37 64 vhcurveto
          hintmask 11100100
          69 47 -43 -73 7 hvcurveto
          -268 -304 rmoveto
          69 53 43 87 87 53 -43 -69 -69 -53 -43 -87 -87 -53 43 69 vhcurveto
          endchar
        </CharString>
        <CharString name="semicolon">
          -8 168 -144 -21 442 168 hstemhm
          286 178 -178 187 hintmask 01110000
          375 437 -98 callsubr
          -102 -615 rmoveto
          hintmask 10101000
          -69 callsubr
          hintmask 01110000
          -36 callsubr
        </CharString>
        <CharString name="seven">
          21 -21 704 96 hstem
          568 70 vstem
          638 634 rmoveto
          166 -542 -96 472 vlineto
          -362 -704 rlineto
          111 hlineto
          endchar
        </CharString>
        <CharString name="six">
          -15 96 347 80 292 -20 hstem
          84 102 378 102 vstem
          375 -15 rmoveto
          173 118 109 160 147 -102 107 -142 -49 -46 -14 -21 -21 hvcurveto
          -21 17 235 310 rlineto
          -123 hlineto
          -220 -294 rlineto
          -64 -85 -29 -77 -90 vvcurveto
          -160 117 -109 174 vhcurveto
          -189 269 rmoveto
          104 -34 callsubr
          -104 -103 -32 callsubr
          103 vhcurveto
          endchar
        </CharString>
        <CharString name="slash">
          -38 callsubr
          612 -105 callsubr
          -96 hlineto
          -378 -1018 rlineto
          96 hlineto
          endchar
        </CharString>
        <CharString name="space">
          endchar
        </CharString>
        <CharString name="sterling">
          0 96 250 84 289 96 hstemhm
          106 37 -37 223 -172 102 -32 102 231 102 hintmask 11110011
          106 170 rmoveto
          -170 538 96 -501 vlineto
          126 35 60 66 105 vvcurveto
          15 -2 15 -3 14 vhcurveto
          188 84 hlineto
          hintmask 11100101
          -216 hlineto
          -18 45 -19 46 55 vvcurveto
          89 55 54 91 89 55 -61 -110 11 vhcurveto
          102 hlineto
          172 -12 -91 95 -154 hhcurveto
          -154 -94 -91 -148 -62 15 -45 16 -39 hvcurveto
          hintmask 11101001
          -82 -84 hlineto
          hintmask 11100011
          115 hlineto
          4 -14 2 -15 -15 vvcurveto
          hintmask 11110011
          -67 -39 -43 -82 -22 vhcurveto
          endchar
        </CharString>
        <CharString name="t">
          -15 90 432 91 hstem
          236 96 227 92 vstem
          332 750 rmoveto
          -96 -152 -151 -91 151 -311 hlineto
          -136 71 -75 129 125 77 78 143 13 vhcurveto
          -92 hlineto
          -87 -9 -40 -44 -70 hhcurveto
          -72 -36 41 80 hvcurveto
          311 298 91 -298 vlineto
          endchar
        </CharString>
        <CharString name="three">
          -15 96 273 94 271 96 hstemhm
          298 215 39 102 -98 102 hintmask 11111000
          654 212 rmoveto
          96 -54 66 -87 13 vhcurveto
          28 vlineto
          hintmask 11110100
          90 11 55 65 95 vvcurveto
          142 -103 87 -168 -176 -108 -93 -166 -18 vhcurveto
          107 hlineto
          104 14 71 59 110 hhcurveto
          105 64 -53 -85 -82 -61 -51 -100 hvcurveto
          -97 -94 97 hlineto
          hintmask 11111000
          98 59 -52 -85 -84 -65 -52 -107 -105 -67 55 98 -12 hvcurveto
          -106 hlineto
          -159 16 104 -90 170 hhcurveto
          170 104 86 141 hvcurveto
          endchar
        </CharString>
        <CharString name="two">
          0 96 623 96 hstem
          122 65 368 101 vstem
          421 363 rmoveto
          -299 -201 rlineto
          -162 518 96 -453 vlineto
          294 192 rlineto
          120 79 55 85 108 vvcurveto
          158 -100 97 -165 -169 -104 -93 -166 -18 vhcurveto
          108 hlineto
          104 14 66 59 103 hhcurveto
          102 62 -61 -98 -74 -42 -61 -92 -62 hvcurveto
          endchar
        </CharString>
        <CharString name="u">
          -15 91 -55 -21 598 -20 hstemhm
          113 96 319 96 hintmask 01111000
          624 hmoveto
          598 -96 -348 vlineto
          hintmask 10111000
          -110 -58 -64 -101 -102 -58 64 110 vhcurveto
          348 -96 -373 vlineto
          -145 88 -95 134 84 59 37 65 22 vhcurveto
          hintmask 01111000
          28 -87 hlineto
          endchar
        </CharString>
        <CharString name="underscore">
          -121 71 hstem
          90 570 vstem
          90 -50 rmoveto
          -71 570 71 vlineto
          endchar
        </CharString>
        <CharString name="uni0237">
          -215 87 635 91 hstem
          432 96 vstem
          148 -104 callsubr
          284 -523 vlineto
          -73 -38 -39 -71 -67 -39 29 53 -9 vhcurveto
          -94 hlineto
          -108 11 75 -61 123 hhcurveto
          132 73 72 127 hvcurveto
          614 vlineto
          endchar
        </CharString>
        <CharString name="uni0306.cy">
          -107 880 68 hstem
          -4 352 vstem
          84 1024 rmoveto
          -88 hlineto
          -90 8 66 -54 102 hhcurveto
          102 66 54 90 8 hvcurveto
          -88 hlineto
          -50 -4 -30 -26 -54 hhcurveto
          -54 -30 26 50 -4 hvcurveto
          endchar
        </CharString>
        <CharString name="uni0307">
          -107 692 153 hstem
          10 148 vstem
          84 692 rmoveto
          44 30 29 47 48 -30 29 -44 -44 -30 -29 -48 -47 30 -29 44 hvcurveto
          endchar
        </CharString>
        <CharString name="uni0308">
          -107 878 115 hstem
          -146 133 126 133 vstem
          -79 878 rmoveto
          41 25 21 36 36 -25 22 -41 -41 -26 -22 -36 -36 26 -21 41 hvcurveto
          192 57 rmoveto
          -36 25 -21 41 41 26 21 36 36 -26 22 -41 -41 -25 -22 -36 vhcurveto
          endchar
        </CharString>
        <CharString name="uni043D">
          21 -21 250 90 258 -20 hstem
          126 96 306 96 vstem
          126 598 rmoveto
          -598 96 250 306 -250 96 598 -96 -258 -306 258 vlineto
          endchar
        </CharString>
        <CharString name="uni043E">
          -81 callsubr
        </CharString>
        <CharString name="uni2002">
          endchar
        </CharString>
        <CharString name="uni2003">
          endchar
        </CharString>
        <CharString name="uni20BD">
          21 -21 156 81 90 81 -81 89 288 96 hstemhm
          169 97 330 102 hintmask 11011110
          439 -107 callsubr
          -270 hlineto
          hintmask 11101110
          -392 -115 vlineto
          hintmask 11011110
          -81 115 -90 -115 -81 115 -156 97 156 210 81 -210 90 173 vlineto
          162 97 89 148 147 -97 89 -162 hvcurveto
          -173 -384 rmoveto
          288 177 vlineto
          96 57 -54 -90 -90 -57 -54 -96 hvcurveto
          endchar
        </CharString>
        <CharString name="v">
          0 37 561 -20 hstem
          76 598 vstem
          76 598 rmoveto
          218 -598 rlineto
          161 hlineto
          219 598 rlineto
          -96 hlineto
          -200 -561 -201 561 rlineto
          endchar
        </CharString>
        <CharString name="w">
          0 53 -53 57 498 43 hstemhm
          38 674 hintmask 10110000
          38 598 rmoveto
          122 -598 rlineto
          138 hlineto
          77 555 77 -555 rlineto
          138 hlineto
          122 598 rlineto
          -98 hlineto
          hintmask 01110000
          -90 -541 -72 541 rlineto
          -147 hlineto
          hintmask 10110000
          -76 -545 -90 545 rlineto
          endchar
        </CharString>
        <CharString name="x">
          21 -21 598 -20 hstem
          84 582 vstem
          96 hmoveto
          105 hlineto
          173 254 168 -254 rlineto
          112 hlineto
          -200 294 212 304 rlineto
          -105 hlineto
          -186 -272 -179 272 rlineto
          -112 hlineto
          210 -312 rlineto
          endchar
        </CharString>
        <CharString name="y">
          -215 89 176 23 525 -20 hstem
          69 616 vstem
          69 598 rmoveto
          237 -548 rlineto
          84 hlineto
          -34 -97 rlineto
          -53 -18 -25 -26 -33 hhcurveto
          -38 -23 21 46 -12 hvcurveto
          -94 hlineto
          -101 15 59 -55 96 hhcurveto
          74 54 47 94 33 hvcurveto
          241 672 rlineto
          -105 hlineto
          -182 -525 -218 525 rlineto
          endchar
        </CharString>
        <CharString name="yen">
          0 215 -81 81 90 81 414 -20 hstemhm
          325 100 hintmask 01111000
          166 -107 callsubr
          -115 hlineto
          252 -414 rlineto
          -176 -81 198 -90 -198 -81 198 hlineto
          hintmask 10111000
          -134 100 vlineto
          hintmask 01111000
          134 198 81 -198 90 198 81 -176 vlineto
          252 414 -42 callsubr
        </CharString>
        <CharString name="z">
          -101 callsubr
          hstem
          136 43 391 44 vstem
          136 -104 callsubr
          434 vlineto
          -434 -337 rlineto
          -170 478 90 -435 vlineto
          435 338 rlineto
          170 vlineto
          endchar
        </CharString>
        <CharString name="zero">
          -79 callsubr
          95 61 -46 -95 30 vhcurveto
          -391 -265 rlineto
          -3 26 -1 28 31 vvcurveto
          23 -180 rmoveto
          391 265 rlineto
          3 -26 1 -28 -31 vvcurveto
          -40 callsubr
          -95 -61 46 95 -30 vhcurveto
          endchar
        </CharString>
</ttFont>
